# xmcd
#
# Track frame offsets:
#	150
#	10777
#	21147
#	36860
#	45910
#	60447
#	72087
#	84125
#	95742
#	107270
#	120105
#	138312
#	148120
#	163092
#	180155
#	189800
#	202475
#	216745
#	233390
#	246732
#	262457
#	273460
#
# Disc length: 3751 seconds
#
# Revision: 1
# Processed by: cddbd v1.5.1PL0 Copyright (c) Steve Scherf et al.
# Submitted via: CDex 1.50Beta5
#
DISCID=320ea516
DTITLE=Various Artist - 夢見る人〜モスクワ郊外の夕べ
DYEAR=1900
DGENRE=Music
TTITLE0=コール・セレステ/夢見る人（夢路より）
TTITLE1=コール・セレステ/おおスザンナ
TTITLE2=コール・セレステ/故郷の人々
TTITLE3=ボニー・ジャックス/春風
TTITLE4=ヴォーチェ・アンジェリカ/懐かしきケンタッキーの我が家
TTITLE5=ヴォーチェ・アンジェリカ/金髪のジェニー
TTITLE6=坂本博士/オールド　ブラック　ジョー
TTITLE7=ダーク・ダックス/星の界
TTITLE8=ヴォーチェ・アンジェリカ/故郷の廃家
TTITLE9=倍賞千恵子/谷間の灯
TTITLE10=ペギー葉山/峠のわが家
TTITLE11=東京少年少女合唱団/線路は続くよどこまでも
TTITLE12=ボニー・ジャックス/モスクワ郊外の夕べ
TTITLE13=ダーク・ダックス/ともしび
TTITLE14=ヴォーチェ・アンジェリカ/カチューシャ
TTITLE15=ボニー・ジャックス/赤いサラファン
TTITLE16=ボニー・ジャックス/バイカル湖のほとり
TTITLE17=ボニー・ジャックス/アムール河のさざ波
TTITLE18=ボニー・ジャックス/ステンカ・ラージン
TTITLE19=ダーク・ダックス/トロイカ
TTITLE20=ダーク・ダックス/黒い瞳
TTITLE21=ヴォーチェ・アンジェリカ/アリラン
EXTD=
EXTT0=
EXTT1=
EXTT2=
EXTT3=
EXTT4=
EXTT5=
EXTT6=
EXTT7=
EXTT8=
EXTT9=
EXTT10=
EXTT11=
EXTT12=
EXTT13=
EXTT14=
EXTT15=
EXTT16=
EXTT17=
EXTT18=
EXTT19=
EXTT20=
EXTT21=
PLAYORDER=
